<svg xmlns="http://www.w3.org/2000/svg" xmlns:xlink="http://www.w3.org/1999/xlink" xmlns:inkscape="http://www.inkscape.org/namespaces/inkscape" version="1.1" width="352.51" height="97.39" viewBox="0 0 352.51 97.39">
<defs>
<path id="font_1_2" d="M.33399964 .30233766C.33999635 .32835389 .36299134 .42037965 .43299867 .42037965 .43798829 .42037965 .46199037 .42037965 .48298646 .40734864 .45498658 .402359 .43499757 .37734986 .43499757 .35334779 .43499757 .33735658 .44599916 .31835938 .47299195 .31835938 .49499513 .31835938 .5269928 .3363495 .5269928 .37635804 .5269928 .42837525 .46798707 .4423828 .43399049 .4423828 .37599183 .4423828 .34098817 .38935853 .32899476 .36634828 .3039856 .43237306 .25 .4423828 .22099304 .4423828 .116989139 .4423828 .05999756 .3133545 .05999756 .28834535 .05999756 .27833558 .069992069 .27833558 .07199097 .27833558 .07998657 .27833558 .08299255 .28033448 .084991458 .28933717 .11898804 .39535523 .18499756 .42037965 .21899414 .42037965 .23799134 .42037965 .272995 .4113617 .272995 .35334779 .272995 .32235719 .2559967 .25532533 .21899414 .11528015 .20298767 .053268434 .16799927 .011245728 .12399292 .011245728 .117996219 .011245728 .09498596 .011245728 .07398987 .024276734 .09899902 .029266358 .12098694 .05027771 .12098694 .07827759 .12098694 .105270389 .09899902 .11328125 .083999637 .11328125 .053985597 .11328125 .0289917 .08728027 .0289917 .055267335 .0289917 .009246826 .07899475-.0107421879 .12298584-.0107421879 .18899536-.0107421879 .22499085 .059280397 .22799683 .0652771 .23999024 .028274537 .27598573-.0107421879 .33599855-.0107421879 .43899537-.0107421879 .49598695 .118270877 .49598695 .14328003 .49598695 .1532898 .4869995 .1532898 .48399354 .1532898 .47499085 .1532898 .47299195 .14929199 .47099305 .14228821 .43798829 .03527832 .36999513 .011245728 .33799745 .011245728 .29899598 .011245728 .2829895 .043273927 .2829895 .07727051 .2829895 .09927368 .2889862 .121276859 .2999878 .16529846L.33399964 .30233766Z"/>
<path id="font_1_1" d="M.36698915 .3996582H.45298768C.47299195 .3996582 .48298646 .3996582 .48298646 .41966249 .48298646 .43066407 .47299195 .43066407 .45599366 .43066407H.37298585L.3939972 .5449524C.397995 .5660095 .4119873 .6370239 .41799928 .6490326 .4269867 .66804507 .44400025 .68307498 .46499635 .68307498 .46899415 .68307498 .49499513 .68307498 .5139923 .66503909 .46998597 .661026 .45999146 .6260376 .45999146 .6110382 .45999146 .58802798 .47799684 .57603457 .49699403 .57603457 .522995 .57603457 .5519867 .5980377 .5519867 .6360321 .5519867 .6820679 .5059967 .7050781 .46499635 .7050781 .43099977 .7050781 .36799623 .68707278 .33799745 .58802798 .33198548 .56700137 .32899476 .5569763 .30499269 .43066407H.23599243C.21699524 .43066407 .20599365 .43066407 .20599365 .4116516 .20599365 .3996582 .21499634 .3996582 .23399353 .3996582H.2999878L.22499085 .0048828127C.20698548-.09207153 .18998719-.18309021 .13798523-.18309021 .13398743-.18309021 .10899353-.18309021 .08999634-.16506958 .13598633-.1620636 .14498902-.12606812 .14498902-.111068729 .14498902-.08807373 .1269989-.07606506 .10798645-.07606506 .08198547-.07606506 .052993776-.09806824 .052993776-.13606262 .052993776-.18109131 .09700012-.20507813 .13798523-.20507813 .19299317-.20507813 .23298645-.14607239 .25099183-.108062747 .2829895-.04508972 .30599977 .07583618 .30699159 .082839969L.36698915 .3996582Z"/>
<path id="font_2_1" d="M.33099366-.2400055C.33099366-.23701477 .33099366-.23500061 .31399537-.21800232 .18899536-.0920105 .15699768 .09700012 .15699768 .25 .15699768 .42399598 .19499207 .59799197 .31799317 .72299197 .33099366 .73498538 .33099366 .7369995 .33099366 .73999026 .33099366 .746994 .32699586 .75 .32099916 .75 .31098939 .75 .22099304 .6819916 .1619873 .5549927 .11099243 .44499208 .09899902 .33399964 .09899902 .25 .09899902 .17199707 .10998535 .050994874 .16499329-.06201172 .22499085-.18501282 .31098939-.25 .32099916-.25 .32699586-.25 .33099366-.24700928 .33099366-.2400055Z"/>
<path id="font_2_2" d="M.2889862 .25C.2889862 .32798768 .27799989 .44898988 .22299195 .56199648 .16299439 .68499758 .07699585 .75 .066986087 .75 .06098938 .75 .056991579 .74598696 .056991579 .73999026 .056991579 .7369995 .056991579 .73498538 .07598877 .71699526 .17399597 .6179962 .23098755 .45899964 .23098755 .25 .23098755 .07899475 .19400025-.09700012 .069992069-.2230072 .056991579-.23500061 .056991579-.23701477 .056991579-.2400055 .056991579-.2460022 .06098938-.25 .066986087-.25 .07699585-.25 .16699219-.18200684 .22599793-.055007936 .2769928 .054992677 .2889862 .16600037 .2889862 .25Z"/>
<path id="font_2_3" d="M.45999146 .31976319C.45999146 .39982606 .45498658 .47988893 .41999818 .5539398 .37399293 .65000918 .2919922 .6660156 .25 .6660156 .18998719 .6660156 .116989139 .64001467 .07598877 .54693606 .04399109 .47789 .038986207 .39982606 .038986207 .31976319 .038986207 .24472046 .042999269 .15464783 .083999637 .07859802 .1269989-.0024719239 .19999695-.022460938 .24899292-.022460938 .30299378-.022460938 .3789978-.0014648438 .4229889 .09359741 .45498658 .16265869 .45999146 .2407074 .45999146 .31976319M.24899292-.00047302247C.20999146-.00047302247 .15098572 .024551392 .1329956 .12062073 .12199402 .18066406 .12199402 .2727356 .12199402 .3317871 .12199402 .39582826 .12199402 .46188355 .12998963 .5159149 .14898682 .63500979 .22399903 .64401248 .24899292 .64401248 .28199769 .64401248 .34799195 .6259918 .36698915 .52693179 .3769989 .47088624 .3769989 .39482118 .3769989 .3317871 .3769989 .25672914 .3769989 .18867493 .3659973 .12461853 .35099793 .029556275 .2939911-.00047302247 .24899292-.00047302247Z"/>
<path id="font_2_5" d="M.1269989 .07699585 .23298645 .18003845C.3889923 .31811524 .44898988 .3721466 .44898988 .47216798 .44898988 .5860901 .35899354 .6660156 .23699951 .6660156 .12399292 .6660156 .049987794 .57411196 .049987794 .48516847 .049987794 .4291687 .099990848 .4291687 .102996829 .4291687 .11999512 .4291687 .15499878 .44117738 .15499878 .48217774 .15499878 .5081787 .13699341 .5341797 .101989749 .5341797 .09399414 .5341797 .09199524 .5341797 .08898926 .5331726 .11199951 .59806826 .1659851 .63500979 .22399903 .63500979 .31498719 .63500979 .35798646 .5541382 .35798646 .47216798 .35798646 .39215089 .30799867 .31311036 .25299073 .25108338L.06098938 .036987306C.049987794 .025985718 .049987794 .023986817 .049987794 0H.42099L.44898988 .17404175H.42399598C.4189911 .14402771 .4119873 .1000061 .4019928 .084991458 .394989 .07699585 .32899476 .07699585 .30699159 .07699585H.1269989Z"/>
<path id="font_2_6" d="M.44898988 .20022583C.44898988 .3193512 .36698915 .41944886 .25898744 .41944886 .21099854 .41944886 .16799927 .40345765 .13198853 .36842347V.5637665C.1519928 .5577698 .18499756 .55078127 .21699524 .55078127 .33999635 .55078127 .4099884 .6417694 .4099884 .6547699 .4099884 .6607666 .40699769 .6657715 .3999939 .6657715 .39898683 .6657715 .39698792 .6657715 .3919983 .66278079 .37199403 .6537781 .32299806 .6337738 .2559967 .6337738 .21598816 .6337738 .16999817 .6407776 .12298584 .6617737 .114990238 .66477969 .11299133 .66477969 .11099243 .66477969 .100997928 .66477969 .100997928 .6567688 .100997928 .6407776V.34439088C.100997928 .32637025 .100997928 .31835938 .114990238 .31835938 .12199402 .31835938 .12399292 .32136537 .12799073 .32736207 .13899231 .3433838 .17599488 .39746095 .25698854 .39746095 .30899049 .39746095 .33399964 .35139466 .34199525 .33337403 .35798646 .29632569 .3600006 .25727845 .3600006 .20722962 .3600006 .17222595 .3600006 .11222839 .33599855 .07035828 .31199647 .031463624 .2749939 .0055389406 .22898865 .0055389406 .1559906 .0055389406 .09899902 .058380128 .08198547 .11723328 .084991458 .1162262 .08799744 .115234378 .09899902 .115234378 .13198853 .115234378 .14898682 .14022827 .14898682 .16423035 .14898682 .18823242 .13198853 .21322632 .09899902 .21322632 .084991458 .21322632 .049987794 .20622254 .049987794 .16023255 .049987794 .07434082 .11898804-.022460938 .23098755-.022460938 .34700013-.022460938 .44898988 .073349 .44898988 .20022583Z"/>
<path id="font_2_4" d="M.2939911 .64004519C.2939911 .66400149 .2939911 .6660156 .2709961 .6660156 .20899964 .60227969 .12098694 .60227969 .08898926 .60227969V.57128909C.10899353 .57128909 .16799927 .57128909 .21998596 .5972748V.07902527C.21998596 .042999269 .21699524 .0309906 .1269989 .0309906H.09498596V0C.12998963 .0029907227 .21699524 .0029907227 .25698854 .0029907227 .29699708 .0029907227 .38398744 .0029907227 .4189911 0V.0309906H.3869934C.29699708 .0309906 .2939911 .041992189 .2939911 .07902527V.64004519Z"/>
<path id="font_3_1" d="M.6589966 .23046875C.6759949 .23046875 .69400027 .23046875 .69400027 .25045777 .69400027 .27046205 .6759949 .27046205 .6589966 .27046205H.117996219C.100997928 .27046205 .08299255 .27046205 .08299255 .25045777 .08299255 .23046875 .100997928 .23046875 .117996219 .23046875H.6589966Z"/>
</defs>
<use data-text="x" xlink:href="#font_1_2" transform="matrix(9.96264,0,0,-9.96264,31.676403,22.491982)"/>
<use data-text="f" xlink:href="#font_1_1" transform="matrix(9.96264,0,0,-9.96264,24.827054,65.35813)"/>
<use data-text="(" xlink:href="#font_2_1" transform="matrix(9.96264,0,0,-9.96264,30.777005,65.35813)"/>
<use data-text="x" xlink:href="#font_1_2" transform="matrix(9.96264,0,0,-9.96264,34.651376,65.35813)"/>
<use data-text=")" xlink:href="#font_2_2" transform="matrix(9.96264,0,0,-9.96264,40.345308,65.35813)"/>
<path transform="matrix(1,0,0,-1,6.1768267,6.173828)" stroke-width=".3985" stroke-linecap="butt" stroke-miterlimit="10" stroke-linejoin="miter" fill="none" stroke="#000000" d="M0-28.3468H340.1617"/>
<path transform="matrix(1,0,0,-1,6.1768267,6.173828)" stroke-width=".3985" stroke-linecap="butt" stroke-miterlimit="10" stroke-linejoin="miter" fill="none" stroke="#000000" d="M0-85.04042H340.1617"/>
<path transform="matrix(1,0,0,-1,6.1768267,6.173828)" stroke-width=".3985" stroke-linecap="butt" stroke-miterlimit="10" stroke-linejoin="miter" fill="none" stroke="#000000" d="M0 0V-85.04042H340.1617V0ZM340.1617-85.04042"/>
<path transform="matrix(1,0,0,-1,6.1768267,6.173828)" stroke-width=".3985" stroke-linecap="butt" stroke-miterlimit="10" stroke-linejoin="miter" fill="none" stroke="#000000" d="M56.69362 0V-85.04042"/>
<use data-text="0" xlink:href="#font_2_3" transform="matrix(9.96264,0,0,-9.96264,74.553157,23.557427)"/>
<use data-text="2" xlink:href="#font_2_5" transform="matrix(9.96264,0,0,-9.96264,159.59363,23.557427)"/>
<use data-text="5" xlink:href="#font_2_6" transform="matrix(9.96264,0,0,-9.96264,244.6341,23.557427)"/>
<use data-text="1" xlink:href="#font_2_4" transform="matrix(9.96264,0,0,-9.96264,327.18385,23.557427)"/>
<use data-text="0" xlink:href="#font_2_3" transform="matrix(9.96264,0,0,-9.96264,332.16517,23.557427)"/>
<path transform="matrix(1,0,0,-1,6.1768267,6.173828)" d="M66.38376-81.05531H75.35025V-70.64978H66.38376Z" fill="#ffffff"/>
<use data-text="1" xlink:href="#font_2_4" transform="matrix(9.96264,0,0,-9.96264,74.55314,85.23658)"/>
<path transform="matrix(1,0,0,-1,6.1768267,6.173828)" d="M66.38376-81.05531H75.35025V-70.64978H66.38376Z" fill="#ffffff"/>
<use data-text="1" xlink:href="#font_2_4" transform="matrix(9.96264,0,0,-9.96264,74.55314,85.23658)"/>
<path transform="matrix(1,0,0,-1,6.1768267,6.173828)" d="M151.4242-42.73746H160.39069V-32.331933H151.4242Z" fill="#ffffff"/>
<use data-text="2" xlink:href="#font_2_5" transform="matrix(9.96264,0,0,-9.96264,159.59357,46.918725)"/>
<path transform="matrix(1,0,0,-1,6.1768267,6.173828)" d="M151.4242-42.73746H160.39069V-32.331933H151.4242Z" fill="#ffffff"/>
<use data-text="2" xlink:href="#font_2_5" transform="matrix(9.96264,0,0,-9.96264,159.59357,46.918725)"/>
<path transform="matrix(1,0,0,-1,6.1768267,6.173828)" stroke-width=".3985" stroke-linecap="butt" stroke-miterlimit="10" stroke-linejoin="miter" fill="none" stroke="#000000" d="M79.15935-72.11613 145.43529-42.25038"/>
<path transform="matrix(.91167,-.41081,-.41081,-.91167,151.61209,48.42421)" d="M2.39102 0C1.39476 .19925-.3985 .59775-1.59401 1.49438-.59775 .3985-.59775-.3985-1.59401-1.49438-.3985-.59775 1.39476-.19925 2.39102 0Z"/>
<path transform="matrix(1,0,0,-1,6.1768267,6.173828)" d="M232.5902-81.05531H249.30553V-69.819538H232.5902Z" fill="#ffffff"/>
<use data-text="&#x2212;" xlink:href="#font_3_1" transform="matrix(9.96264,0,0,-9.96264,240.75959,84.40635)"/>
<use data-text="2" xlink:href="#font_2_5" transform="matrix(9.96264,0,0,-9.96264,248.50833,84.40635)"/>
<path transform="matrix(1,0,0,-1,6.1768267,6.173828)" d="M232.5902-81.05531H249.30553V-69.819538H232.5902Z" fill="#ffffff"/>
<use data-text="&#x2212;" xlink:href="#font_3_1" transform="matrix(9.96264,0,0,-9.96264,240.75959,84.40635)"/>
<use data-text="2" xlink:href="#font_2_5" transform="matrix(9.96264,0,0,-9.96264,248.50833,84.40635)"/>
<path transform="matrix(1,0,0,-1,6.1768267,6.173828)" stroke-width=".3985" stroke-linecap="butt" stroke-miterlimit="10" stroke-linejoin="miter" fill="none" stroke="#000000" d="M164.20313-41.23193 226.59394-69.04428"/>
<path transform="matrix(.91335,.40714,.40714,-.91335,232.77075,75.2181)" d="M2.39102 0C1.39476 .19925-.3985 .59775-1.59401 1.49438-.59775 .3985-.59775-.3985-1.59401-1.49438-.3985-.59775 1.39476-.19925 2.39102 0Z"/>
<path transform="matrix(1,0,0,-1,6.1768267,6.173828)" d="M317.6306-43.56769H334.34596V-32.331914H317.6306Z" fill="#ffffff"/>
<use data-text="&#x2212;" xlink:href="#font_3_1" transform="matrix(9.96264,0,0,-9.96264,325.8,46.918748)"/>
<use data-text="1" xlink:href="#font_2_4" transform="matrix(9.96264,0,0,-9.96264,333.54875,46.918748)"/>
<path transform="matrix(1,0,0,-1,6.1768267,6.173828)" d="M317.6306-43.56769H334.34596V-32.331914H317.6306Z" fill="#ffffff"/>
<use data-text="&#x2212;" xlink:href="#font_3_1" transform="matrix(9.96264,0,0,-9.96264,325.8,46.918748)"/>
<use data-text="1" xlink:href="#font_2_4" transform="matrix(9.96264,0,0,-9.96264,333.54875,46.918748)"/>
<path transform="matrix(1,0,0,-1,6.1768267,6.173828)" stroke-width=".3985" stroke-linecap="butt" stroke-miterlimit="10" stroke-linejoin="miter" fill="none" stroke="#000000" d="M253.1212-70.07127 311.62727-44.2761"/>
<path transform="matrix(.91496,-.40341,-.40341,-.91496,317.80409,50.44993)" d="M2.39102 0C1.39476 .19925-.3985 .59775-1.59401 1.49438-.59775 .3985-.59775-.3985-1.59401-1.49438-.3985-.59775 1.39476-.19925 2.39102 0Z"/>
</svg>
